<svg width="100" height="100" viewBox="0 0 100 100" fill="none" xmlns="http://www.w3.org/2000/svg">
<rect width="100" height="100" rx="50" fill="white"/>
<path d="M36.6412 9.43962C35.6393 9.85125 35.8397 10.7311 34.681 11.4389C34.1627 11.7547 33.9035 11.7112 33.5659 12.0923C33.2624 12.467 33.0889 12.9302 33.0716 13.4121L32.342 14.2441C32.1634 17.1037 31.9478 19.2381 31.804 20.0221C31.748 20.3678 31.6354 20.7018 31.4708 21.0109C31.229 21.4465 31.0526 21.5074 30.8174 21.8821C30.4646 22.4222 30.567 22.7293 30.3208 23.5743C30.1737 24.0788 29.966 24.5636 29.7023 25.0182L28.7941 27.1243L28.0515 29.52L27.3088 30.8398L26.5661 31.6652L25.7407 33.1898L25.0394 36.2018L24.0789 37.6001L23.8328 39.1246L23.2121 39.9522V41.7599L22.9769 43.9552L22.77 46.1331L23.1424 47.9909L23.3363 49.6004C23.0843 50.0969 22.9843 50.6568 23.0488 51.2098C23.125 51.7652 23.3276 51.8066 23.5018 52.3641C23.8938 53.6273 23.1337 54.3243 23.5018 55.631C23.5996 55.9703 23.7527 56.2911 23.9548 56.5806L24.1726 57.6129C24.265 57.8533 24.3343 58.102 24.3795 58.3556C24.5276 59.181 24.2967 59.3487 24.4623 59.8801C24.6278 60.4115 24.9327 60.429 25.2049 61.1172C25.3219 61.4075 25.3953 61.7136 25.4227 62.0254L25.6274 63.8418L25.9585 65.534L27.1955 67.1021L28.4762 69.1232L29.5477 70.5671L30.3731 71.9283L30.8697 73.2917C31.3425 73.5947 31.7378 74.0042 32.024 74.4874C32.4421 75.2105 32.3942 75.7811 32.9322 76.0969C33.2654 76.2929 33.3895 76.1383 33.7576 76.3865C34.0912 76.6427 34.3481 76.9854 34.5003 77.3775C34.6033 77.604 34.6828 77.8404 34.7377 78.0831L35.5217 78.6603L36.6412 79.6556L37.2444 80.4396L38.6579 82.1667L40.2674 83.1577L42.4017 85.1004L43.6388 86.3788L45.4552 87.287L46.9405 87.9883L48.6828 88.8595L49.6477 89.1491C50.4282 89.4091 51.2221 89.6272 52.0259 89.8025C52.4901 89.8723 52.9432 90.0019 53.3741 90.188C53.838 90.4058 54.0274 90.6105 54.5414 90.7913C54.8603 90.9068 55.1939 90.9765 55.5324 90.9982L56.3164 91.2464L56.8936 91.6167L57.719 92.4007L58.8341 93.4745L60.0712 94.2171L61.1863 95.0012L62.0574 95.7025H65.6052L66.8445 93.5986V92.5663L66.8575 91.0679C66.9229 90.4145 66.986 89.7611 67.0514 89.1077L67.3389 87.8685L68.454 85.7646C68.454 85.7646 68.907 85.7233 69.0311 85.5577C69.1552 85.3922 69.6845 83.0814 69.6845 83.0814L70.4271 80.9776L71.5836 79.3267V78.2116L72.1194 77.0987L73.1103 74.9948L73.4392 73.4703L73.657 72.1069L74.9768 69.3018L75.3492 66.7427L75.6803 65.0919L76.0091 62.4109C76.1463 62.0384 76.2836 61.6682 76.4229 61.2958C76.6839 60.7725 76.7701 60.1794 76.669 59.6035C76.6215 59.3591 76.5386 59.1228 76.4229 58.9022L76.4643 58.3251L77.0001 57.2514V53.9409L76.7518 52.571L77.0001 51.0117L76.669 49.2693L76.1747 48.115L76.1333 47.2439L76.2988 45.6344L75.9002 44.6151L75.2817 42.8728L74.6632 41.015L73.8791 39.0745L73.4653 37.2603L73.069 36.5699L72.2435 35.5376L71.7078 34.7535L71.6664 33.6384L71.013 32.6083L70.1898 31.5759L69.2402 29.8009L68.1665 28.7708L67.0383 27.8212L65.4702 25.4691L63.3642 23.7768L61.012 21.7536L59.237 20.8519C59.237 20.8519 58.013 19.5168 57.4947 19.201C57.0282 18.9843 56.5454 18.8044 56.0507 18.6631L55.3473 18.2928L53.7792 16.7247L52.6249 16.3937L61.0534 9.43962L62.2513 7.88895L54.6569 6.47766L47.9315 6.76732C47.9315 6.76732 43.9285 7.97389 43.1401 8.08714C42.7633 8.14159 42.2689 8.17208 41.903 8.54015C41.585 8.85159 41.5044 9.24579 41.1603 9.3242C40.9714 9.35858 40.7766 9.3171 40.618 9.20877C40.3867 8.9972 40.1008 8.85461 39.7926 8.79714C39.2067 8.70131 38.8583 9.01493 37.9784 9.25015C37.0985 9.48536 37.1334 9.23708 36.6412 9.43962Z" fill="#F4CE14"/>
<path d="M54.1341 36.5699C54.0973 36.4296 54.0321 36.2983 53.9424 36.1844C53.3195 35.3655 53.6876 32.9175 53.668 31.2601C53.6506 30.0122 53.4306 30.4957 53.0887 27.7646C52.7859 25.3492 52.9819 25.1511 52.6531 24.0621C52.1914 22.5376 51.3877 21.4726 50.7822 20.6798C49.5038 19.0006 49.0813 19.2554 47.951 17.598C47.5515 16.9421 47.0501 16.354 46.4656 15.8557C46.0637 15.5463 45.6376 15.2695 45.1915 15.0281C43.9654 14.2506 43.8282 13.5972 42.7436 12.4974C41.8724 11.6262 40.3718 10.1017 39.1391 10.4349C38.6404 10.5721 38.1939 11.2886 37.3206 12.7173C36.8108 13.5108 36.3532 14.3365 35.9506 15.1893C35.0141 17.2452 33.9252 19.6366 34.1887 22.727C34.2148 23.0167 34.6613 27.4814 38.0414 30.4848C38.9915 31.2892 40.0246 31.9901 41.1232 32.5756C42.4027 33.2743 43.726 33.8897 45.0848 34.4181C45.2721 34.49 47.3869 35.2893 48.1644 35.9862C48.2926 36.1058 48.4336 36.211 48.5847 36.2998C48.9451 36.5082 49.3463 36.636 49.7608 36.6744C51.098 36.8639 51.3725 38.016 52.7859 38.0835C53.0904 38.1191 53.3979 38.0491 53.6571 37.8853C53.8531 37.7338 54.002 37.5297 54.0865 37.2968C54.1709 37.0639 54.1874 36.8118 54.1341 36.5699ZM50.1463 32.7716C49.824 32.9894 47.8377 30.7156 46.6791 29.2238C45.3952 27.5695 44.2803 25.7907 43.3512 23.914C42.4846 22.2705 41.7308 20.57 41.0949 18.8242C40.5373 17.2997 39.4767 14.3834 39.8012 14.231C39.9079 14.1809 40.3217 14.3508 46.9273 26.2531C49.5234 30.9312 50.3989 32.5973 50.1463 32.7716Z" fill="#4B5E57"/>
<path d="M68.7695 10.3847C67.762 11.3266 66.6683 12.1718 65.5026 12.9089C61.4778 15.4483 58.9296 15.2197 55.4058 16.3478C54.6732 16.6142 53.8818 16.6759 53.1168 16.5264C52.9558 16.4906 52.7973 16.4448 52.642 16.3892C50.6536 15.7162 50.1831 14.9757 48.6934 14.6164C47.9791 14.4421 47.7112 14.5227 46.9337 14.2309C46.5019 14.0584 46.0871 13.8462 45.6945 13.5971C44.1024 12.5757 42.5408 10.5219 42.2751 10.1669L41.8918 9.88377C42.7064 9.7226 43.9478 9.50699 45.468 9.36107C48.4452 9.07576 50.5207 9.24999 52.5658 9.33275C55.3539 9.44272 58.146 9.39692 60.929 9.19555C58.812 8.75996 57.0087 8.51821 55.6475 8.37012C52.0978 8.04237 48.5255 8.04237 44.9757 8.37012C43.8541 8.48337 43.2944 8.53999 42.8392 8.75561C42.2751 9.02349 41.8243 9.40898 41.1753 9.33275C40.9087 9.30049 40.6538 9.20409 40.4326 9.0518C41.1731 8.57266 42.2338 7.92364 43.5536 7.24196C45.3961 6.29239 47.256 5.32975 49.6517 4.76567C52.4736 4.14159 55.3978 4.14159 58.2196 4.76567C61.2949 5.45389 60.746 6.14647 64.1349 6.88478C65.4416 7.16791 66.9139 7.37263 67.931 8.59009C68.3493 9.11304 68.6368 9.72828 68.7695 10.3847Z" fill="#4B5E57"/>
</svg>
