<svg width="128" height="286" viewBox="0 0 128 286" fill="none" xmlns="http://www.w3.org/2000/svg">
<path d="M45.0317 84.4254C43.5849 85.0198 43.8743 86.2905 42.201 87.3127C41.4525 87.7687 41.0782 87.7058 40.5907 88.2562C40.1523 88.7973 39.9018 89.4663 39.8767 90.1622L38.8231 91.3637C38.5652 95.4933 38.2538 98.5756 38.0462 99.7079C37.9654 100.207 37.8028 100.689 37.565 101.136C37.2159 101.765 36.9611 101.853 36.6215 102.394C36.1119 103.174 36.2598 103.617 35.9044 104.838C35.6918 105.566 35.3919 106.266 35.0111 106.923L33.6996 109.964L32.6271 113.424L31.5546 115.33L30.4821 116.522L29.29 118.724L28.2773 123.073L26.8903 125.093L26.5349 127.294L25.6385 128.489V131.1L25.2988 134.27L25 137.415L25.5378 140.098L25.8177 142.423C25.4538 143.14 25.3094 143.948 25.4026 144.747C25.5127 145.549 25.8052 145.609 26.0568 146.414C26.6229 148.238 25.5252 149.245 26.0568 151.132C26.1981 151.622 26.4191 152.085 26.711 152.503L27.0255 153.994C27.159 154.341 27.259 154.7 27.3243 155.066C27.5382 156.258 27.2048 156.5 27.4438 157.268C27.6828 158.035 28.1232 158.06 28.5163 159.054C28.6852 159.474 28.7912 159.916 28.8308 160.366L29.1265 162.989L29.6046 165.433L31.391 167.697L33.2404 170.616L34.7878 172.701L35.9798 174.667L36.6969 176.636C37.3797 177.074 37.9506 177.665 38.3639 178.363C38.9678 179.407 38.8986 180.231 39.6754 180.687C40.1566 180.97 40.3359 180.747 40.8675 181.105C41.3492 181.475 41.7202 181.97 41.94 182.536C42.0887 182.863 42.2036 183.205 42.2828 183.555L43.4151 184.389L45.0317 185.826L45.9029 186.958L47.9441 189.453L50.2684 190.884L53.3507 193.689L55.1372 195.535L57.7602 196.847L59.9053 197.86L62.4214 199.118L63.8147 199.536C64.9419 199.912 66.0884 200.226 67.2493 200.48C67.9195 200.58 68.5739 200.768 69.1961 201.036C69.8661 201.351 70.1397 201.646 70.882 201.908C71.3424 202.074 71.8242 202.175 72.313 202.206L73.4453 202.565L74.2788 203.1L75.4708 204.232L77.0811 205.782L78.8676 206.855L80.4779 207.987L81.736 209H86.8595L88.6491 205.962V204.471L88.668 202.307C88.7623 201.363 88.8535 200.42 88.9479 199.476L89.3631 197.687L90.9734 194.648C90.9734 194.648 91.6276 194.589 91.8069 194.35C91.9862 194.111 92.7504 190.774 92.7504 190.774L93.8229 187.735L95.493 185.351V183.741L96.2667 182.134L97.6978 179.095L98.1727 176.894L98.4873 174.925L100.393 170.874L100.931 167.178L101.409 164.794L101.884 160.923C102.082 160.385 102.28 159.85 102.482 159.312C102.858 158.557 102.983 157.7 102.837 156.868C102.768 156.515 102.649 156.174 102.482 155.856L102.541 155.022L103.315 153.472V148.691L102.957 146.713L103.315 144.461L102.837 141.945L102.123 140.278L102.063 139.02L102.302 136.695L101.727 135.223L100.834 132.707L99.9403 130.024L98.8081 127.222L98.2105 124.602L97.638 123.605L96.446 122.114L95.6723 120.982L95.6125 119.372L94.669 117.884L93.4801 116.393L92.1088 113.83L90.5582 112.342L88.929 110.971L86.6645 107.574L83.6231 105.13L80.2263 102.208L77.663 100.906C77.663 100.906 75.8954 98.9782 75.1468 98.5221C74.4731 98.2091 73.7759 97.9493 73.0616 97.7453L72.0457 97.2106L69.7811 94.946L68.1142 94.468L80.2861 84.4254L82.0159 82.186L71.0487 80.1479L61.3363 80.5663C61.3363 80.5663 55.5555 82.3087 54.4169 82.4722C53.8728 82.5509 53.1588 82.5949 52.6305 83.1264C52.1713 83.5762 52.0549 84.1455 51.5579 84.2587C51.2851 84.3084 51.0037 84.2485 50.7748 84.092C50.4407 83.7865 50.0278 83.5806 49.5828 83.4976C48.7367 83.3592 48.2335 83.8121 46.9628 84.1518C45.6922 84.4914 45.7425 84.1329 45.0317 84.4254Z" fill="#F4CE14"/>
<path d="M70.294 123.605C70.241 123.402 70.1467 123.213 70.0173 123.048C69.1177 121.866 69.6493 118.331 69.621 115.937C69.5958 114.135 69.2781 114.833 68.7843 110.889C68.3472 107.401 68.6302 107.115 68.1553 105.542C67.4885 103.341 66.328 101.803 65.4536 100.658C63.6074 98.2328 62.9972 98.6008 61.3648 96.2073C60.788 95.26 60.0639 94.4107 59.2198 93.6912C58.6394 93.2443 58.0241 92.8446 57.3799 92.496C55.6092 91.3732 55.411 90.4296 53.8447 88.8413C52.5866 87.5832 50.4196 85.3816 48.6394 85.8628C47.9192 86.0609 47.2744 87.0957 46.0132 89.1589C45.2771 90.3047 44.6163 91.4972 44.0349 92.7287C42.6824 95.6978 41.1099 99.1512 41.4904 103.614C41.5282 104.033 42.1729 110.48 47.0543 114.817C48.4262 115.979 49.9181 116.991 51.5047 117.837C53.3525 118.846 55.2635 119.735 57.2258 120.498C57.4963 120.601 60.5502 121.756 61.6731 122.762C61.8582 122.935 62.0618 123.087 62.2801 123.215C62.8005 123.516 63.3799 123.701 63.9785 123.756C65.9096 124.03 66.3059 125.693 68.3472 125.791C68.7869 125.842 69.231 125.741 69.6052 125.505C69.8883 125.286 70.1034 124.991 70.2253 124.655C70.3473 124.318 70.3711 123.954 70.294 123.605ZM64.5352 118.12C64.0697 118.434 61.2013 115.151 59.5281 112.996C57.674 110.607 56.064 108.038 54.7222 105.328C53.4708 102.955 52.3822 100.499 51.4638 97.978C50.6586 95.7764 49.1269 91.565 49.5956 91.3448C49.7497 91.2725 50.3473 91.5178 59.8866 108.706C63.6357 115.462 64.9 117.868 64.5352 118.12Z" fill="#4B5E57"/>
<path d="M91.4298 85.7905C89.975 87.1508 88.3954 88.3713 86.712 89.4358C80.8997 93.1031 77.2199 92.7728 72.131 94.402C71.073 94.7867 69.9302 94.8759 68.8254 94.6599C68.5929 94.6082 68.3639 94.5421 68.1397 94.4618C65.2682 93.4899 64.5888 92.4206 62.4375 91.9016C61.4059 91.65 61.019 91.7664 59.8962 91.3449C59.2726 91.0958 58.6735 90.7894 58.1066 90.4297C55.8074 88.9546 53.5524 85.9887 53.1686 85.476L52.6151 85.0671C53.7914 84.8344 55.5841 84.523 57.7795 84.3123C62.0789 83.9003 65.0763 84.1519 68.0296 84.2714C72.056 84.4302 76.0881 84.364 80.1072 84.0732C77.05 83.4442 74.4458 83.0951 72.4801 82.8812C67.3538 82.4079 62.1949 82.4079 57.0687 82.8812C55.4489 83.0448 54.6406 83.1265 53.9832 83.4379C53.1686 83.8248 52.5176 84.3815 51.5803 84.2714C51.1953 84.2248 50.8273 84.0856 50.5078 83.8657C51.5772 83.1737 53.1089 82.2365 55.0149 81.252C57.6757 79.8807 60.3617 78.4905 63.8214 77.6759C67.8965 76.7747 72.1194 76.7747 76.1945 77.6759C80.6355 78.6698 79.843 79.67 84.7369 80.7362C86.624 81.1451 88.7501 81.4407 90.2189 83.1989C90.823 83.9541 91.2382 84.8426 91.4298 85.7905Z" fill="#4B5E57"/>
<path d="M3.32031 33.707V14.9375H6.60156V33.707H3.32031ZM4.96094 34V32.0469H14.7461L15.5469 34H4.96094ZM15.5469 34L12.3242 32.9648L15.1367 27.6523H16.3867C16.3867 29.9049 16.1068 32.0208 15.5469 34ZM9.57031 14.6641L9.47266 15.9141C9.02995 16.0573 8.52214 16.194 7.94922 16.3242C7.38932 16.4544 6.8099 16.5586 6.21094 16.6367L6.60156 15.2109V17.9453H3.32031V15.2109L3.65234 16.5195L1.05469 15.9531L1.15234 14.6641H9.57031ZM1.13281 34L1.23047 32.75C1.90755 32.4766 2.73438 32.2227 3.71094 31.9883L3.32031 33.4531V30.7188H6.60156V33.4531L6.26953 32.1445L8.86719 32.7109L8.76953 34H1.13281ZM25.3859 33.707V14.9375H28.6672V33.707H25.3859ZM23.1984 34L23.2961 32.75C23.9732 32.4766 24.8 32.2227 25.7766 31.9883L25.3859 33.4531V30.7188H28.6672V33.4531L28.3352 32.1445L30.9328 32.7109L30.8352 34H23.1984ZM30.8547 14.6641L30.757 15.9141C30.0799 16.1875 29.2531 16.4414 28.2766 16.6758L28.6672 15.2109V17.9453H25.3859V15.2109L25.718 16.5195L23.1203 15.9531L23.218 14.6641H30.8547ZM44.1703 33.707V14.9375H47.4516V33.707H44.1703ZM37.4711 20.4258C37.3148 18.4206 37.419 16.5 37.7836 14.6641L40.8109 15.7773L38.7992 20.4258H37.4711ZM38.1352 16.6172L37.7836 14.6641H53.8383L53.1352 16.6172H38.1352ZM52.8227 20.4258L50.8109 15.7773L53.8383 14.6641C54.2029 16.5 54.307 18.4206 54.1508 20.4258H52.8227ZM41.6703 34L41.768 32.75C42.1586 32.6068 42.5948 32.4701 43.0766 32.3398C43.5583 32.2096 44.0531 32.099 44.5609 32.0078L44.1703 33.4531V30.7188H47.4516V33.4531L47.0805 32.1445L50.0297 32.7109L49.932 34H41.6703ZM66.9391 33.707V14.9375H70.2203V33.707H66.9391ZM60.2398 20.4258C60.0836 18.4206 60.1878 16.5 60.5523 14.6641L63.5797 15.7773L61.568 20.4258H60.2398ZM60.9039 16.6172L60.5523 14.6641H76.607L75.9039 16.6172H60.9039ZM75.5914 20.4258L73.5797 15.7773L76.607 14.6641C76.9716 16.5 77.0758 18.4206 76.9195 20.4258H75.5914ZM64.4391 34L64.5367 32.75C64.9273 32.6068 65.3635 32.4701 65.8453 32.3398C66.3271 32.2096 66.8219 32.099 67.3297 32.0078L66.9391 33.4531V30.7188H70.2203V33.4531L69.8492 32.1445L72.7984 32.7109L72.7008 34H64.4391ZM85.6844 33.707V14.9375H88.9656V33.707H85.6844ZM87.325 34V32.0469H97.1102L97.9109 34H87.325ZM97.9109 34L94.6883 32.9648L97.5008 27.6523H98.7508C98.7508 29.9049 98.4708 32.0208 97.9109 34ZM91.9344 14.6641L91.8367 15.9141C91.394 16.0573 90.8862 16.194 90.3133 16.3242C89.7534 16.4544 89.174 16.5586 88.575 16.6367L88.9656 15.2109V17.9453H85.6844V15.2109L86.0164 16.5195L83.4187 15.9531L83.5164 14.6641H91.9344ZM83.4969 34L83.5945 32.75C84.2716 32.4766 85.0984 32.2227 86.075 31.9883L85.6844 33.4531V30.7188H88.9656V33.4531L88.6336 32.1445L91.2312 32.7109L91.1336 34H83.4969ZM107.711 33.707V14.9375H110.992V33.707H107.711ZM109.371 34V32.0469H119.918L120.387 34H109.371ZM120.387 34L117.281 32.9648L119.684 28.4336H121.188C121.214 29.1107 121.155 29.9701 121.012 31.0117C120.868 32.0404 120.66 33.0365 120.387 34ZM109.059 25.1328V23.0234H117.633L117.477 25.1328H109.059ZM108.238 16.6172V14.6641H120.172L119.801 16.6172H108.238ZM118.98 19.8789L117.223 15.7773L120.172 14.6641C120.354 15.5365 120.471 16.4284 120.523 17.3398C120.589 18.2383 120.589 19.0846 120.523 19.8789H118.98ZM105.523 34L105.621 32.75C106.298 32.4766 107.125 32.2227 108.102 31.9883L107.711 33.4531V30.7188H110.992V33.4531L110.66 32.1445L113.258 32.7109L113.16 34H105.523ZM113.18 14.6641L113.082 15.9141C112.405 16.1875 111.578 16.4414 110.602 16.6758L110.992 15.2109V17.9453H107.711V15.2109L108.043 16.5195L105.445 15.9531L105.543 14.6641H113.18Z" fill="#4B5E57"/>
<path d="M5.65 271.707V252.938H8.93125V271.707H5.65ZM7.29063 272V270.047H17.0758L17.8766 272H7.29063ZM17.8766 272L14.6539 270.965L17.4664 265.652H18.7164C18.7164 267.905 18.4365 270.021 17.8766 272ZM11.9 252.664L11.8023 253.914C11.3596 254.057 10.8518 254.194 10.2789 254.324C9.71901 254.454 9.13958 254.559 8.54063 254.637L8.93125 253.211V255.945H5.65V253.211L5.98203 254.52L3.38438 253.953L3.48203 252.664H11.9ZM3.4625 272L3.56016 270.75C4.23724 270.477 5.06406 270.223 6.04063 269.988L5.65 271.453V268.719H8.93125V271.453L8.59922 270.145L11.1969 270.711L11.0992 272H3.4625ZM27.6766 271.707V252.938H30.9578V271.707H27.6766ZM29.3367 272V270.047H39.8836L40.3523 272H29.3367ZM40.3523 272L37.2469 270.965L39.6492 266.434H41.1531C41.1792 267.111 41.1206 267.97 40.9773 269.012C40.8341 270.04 40.6258 271.036 40.3523 272ZM29.0242 263.133V261.023H37.5984L37.4422 263.133H29.0242ZM28.2039 254.617V252.664H40.1375L39.7664 254.617H28.2039ZM38.9461 257.879L37.1883 253.777L40.1375 252.664C40.3198 253.536 40.437 254.428 40.4891 255.34C40.5542 256.238 40.5542 257.085 40.4891 257.879H38.9461ZM25.4891 272L25.5867 270.75C26.2638 270.477 27.0906 270.223 28.0672 269.988L27.6766 271.453V268.719H30.9578V271.453L30.6258 270.145L33.2234 270.711L33.1258 272H25.4891ZM33.1453 252.664L33.0477 253.914C32.3706 254.188 31.5438 254.441 30.5672 254.676L30.9578 253.211V255.945H27.6766V253.211L28.0086 254.52L25.4109 253.953L25.5086 252.664H33.1453ZM58.8242 271.219L51.8906 252.664H55.25L61.2852 269.52L61.3633 271.141C60.9857 271.193 60.5755 271.225 60.1328 271.238C59.7031 271.251 59.2669 271.245 58.8242 271.219ZM47.8281 272L47.9258 270.75C48.6029 270.438 49.3906 270.184 50.2891 269.988L49.8203 271.297L50.9727 253.562L51.2656 254.52L48.5312 253.953L48.6289 252.664H53.2969L52.2812 271.258L51.9688 270.145L54.8008 270.711L54.7031 272H47.8281ZM61.3633 271.141L59.3906 270.711L65.7578 252.664H68.2578L61.3633 271.141ZM65.4648 272L65.5625 270.75C65.9401 270.594 66.3568 270.457 66.8125 270.34C67.2812 270.21 67.7565 270.099 68.2383 270.008L67.9062 271.16L66.9102 252.664H72.3398L72.2422 253.914C71.526 254.214 70.6602 254.461 69.6445 254.656L69.9766 253.738L71.1289 271.102L70.7578 270.145L73.2188 270.711L73.1211 272H65.4648ZM89.3469 272.352C87.4849 272.352 85.8703 271.941 84.5031 271.121C83.1359 270.301 82.0747 269.142 81.3195 267.645C80.5773 266.147 80.2063 264.383 80.2063 262.352C80.2063 260.307 80.5773 258.536 81.3195 257.039C82.0747 255.529 83.1359 254.363 84.5031 253.543C85.8833 252.723 87.5044 252.312 89.3664 252.312C91.2284 252.312 92.843 252.723 94.2102 253.543C95.5904 254.363 96.6516 255.522 97.3938 257.02C98.149 258.504 98.5266 260.268 98.5266 262.312C98.5266 264.357 98.149 266.134 97.3938 267.645C96.6516 269.142 95.5904 270.301 94.2102 271.121C92.843 271.941 91.2219 272.352 89.3469 272.352ZM89.8547 270.438C93.1359 270.438 94.7766 267.977 94.7766 263.055C94.7766 260.216 94.2622 258.035 93.2336 256.512C92.218 254.988 90.7661 254.227 88.8781 254.227C85.5969 254.227 83.9563 256.688 83.9563 261.609C83.9563 264.461 84.4641 266.648 85.4797 268.172C86.5083 269.682 87.9667 270.438 89.8547 270.438ZM120.475 272.117L108.131 254.695L110.319 252.664L122.662 270.125L122.819 272.02C122.129 272.163 121.347 272.195 120.475 272.117ZM107.975 271.707V252.938L110.436 254.09V271.707H107.975ZM110.592 256.023L108.307 254.871L105.709 253.953L105.807 252.664H110.319L110.592 256.023ZM122.819 272.02L120.358 271.141V252.938H122.819V272.02ZM105.787 272L105.885 270.75C106.562 270.477 107.389 270.223 108.366 269.988L107.975 271.453V268.719H110.436V271.453L110.065 270.145L112.975 270.711L112.877 272H105.787ZM124.889 252.664L124.791 253.914C124.023 254.24 123.229 254.493 122.409 254.676L122.819 253.211V255.945H120.358V253.211L120.69 254.52L118.092 253.953L118.19 252.664H124.889Z" fill="#4B5E57"/>
<rect x="23" y="60" width="105" height="5" fill="#4B5E57"/>
<rect x="123" y="209" width="149" height="5" transform="rotate(-90 123 209)" fill="#4B5E57"/>
<rect y="226" width="149" height="5" transform="rotate(-90 0 226)" fill="#4B5E57"/>
<rect y="221" width="105" height="5" fill="#4B5E57"/>
</svg>
