<svg width="242" height="58" viewBox="0 0 242 58" fill="none" xmlns="http://www.w3.org/2000/svg">
<path d="M8.8018 3.26274C8.16609 3.52394 8.29323 4.08225 7.55802 4.5314C7.22911 4.73178 7.06466 4.70414 6.85045 4.94599C6.65784 5.18375 6.54774 5.47768 6.53674 5.78347L6.07378 6.31138C5.96046 8.12591 5.82364 9.48025 5.73243 9.97776C5.69691 10.1971 5.62547 10.4091 5.52099 10.6052C5.36759 10.8816 5.25565 10.9203 5.1064 11.158C4.88252 11.5007 4.94747 11.6956 4.79131 12.2318C4.69792 12.5519 4.56613 12.8595 4.39883 13.148L3.82254 14.4844L3.35129 16.0046L2.88004 16.842L2.40878 17.3658L1.88501 18.3332L1.44002 20.2445L0.830567 21.1317L0.674404 22.0991L0.280541 22.6242V23.7713L0.131288 25.1643L0 26.5463L0.236318 27.7251L0.359314 28.7464C0.1994 29.0615 0.135947 29.4167 0.176893 29.7677C0.225262 30.1201 0.353786 30.1463 0.464344 30.5001C0.713099 31.3016 0.23079 31.7439 0.464344 32.5731C0.52642 32.7883 0.623538 32.9919 0.751794 33.1756L0.889992 33.8307C0.948645 33.9832 0.992607 34.141 1.02128 34.3019C1.11525 34.8257 0.968765 34.9321 1.07379 35.2693C1.17882 35.6065 1.3723 35.6176 1.54505 36.0543C1.61927 36.2385 1.66584 36.4327 1.68325 36.6305L1.81315 37.7831L2.02321 38.8569L2.80817 39.8519L3.62078 41.1344L4.30071 42.0507L4.82448 42.9144L5.13957 43.7795C5.43958 43.9718 5.69042 44.2316 5.87201 44.5382C6.13735 44.997 6.10695 45.3591 6.4483 45.5595C6.65974 45.6839 6.73851 45.5857 6.97207 45.7433C7.18374 45.9058 7.34674 46.1233 7.44332 46.3721C7.50869 46.5158 7.55916 46.6658 7.59395 46.8199L8.09146 47.1861L8.8018 47.8176L9.18461 48.3152L10.0815 49.4111L11.1028 50.0399L12.4571 51.2726L13.2421 52.0838L14.3947 52.6601L15.3372 53.1051L16.4427 53.6579L17.055 53.8417C17.5502 54.0067 18.054 54.1451 18.5641 54.2563C18.8586 54.3006 19.1461 54.3828 19.4195 54.5009C19.7139 54.6391 19.8341 54.769 20.1603 54.8837C20.3626 54.957 20.5743 55.0012 20.7891 55.015L21.2866 55.1725L21.6528 55.4075L22.1766 55.905L22.8841 56.5863L23.6691 57.0575L24.3767 57.555L24.9295 58H27.1807L27.967 56.665V56.01L27.9753 55.0592C28.0168 54.6446 28.0569 54.23 28.0983 53.8154L28.2807 53.0291L28.9883 51.6941C28.9883 51.6941 29.2758 51.6678 29.3545 51.5628C29.4333 51.4578 29.7691 49.9915 29.7691 49.9915L30.2404 48.6565L30.9742 47.609V46.9014L31.3142 46.1952L31.943 44.8602L32.1517 43.8928L32.2899 43.0277L33.1273 41.2477L33.3636 39.6239L33.5737 38.5764L33.7824 36.8752C33.8694 36.6388 33.9565 36.4039 34.045 36.1676C34.2105 35.8356 34.2653 35.4592 34.2011 35.0938C34.1709 34.9387 34.1183 34.7888 34.045 34.6488L34.0712 34.2826L34.4112 33.6013V31.5007L34.2536 30.6314L34.4112 29.6419L34.2011 28.5363L33.8874 27.8039L33.8612 27.2511L33.9662 26.2298L33.7133 25.583L33.3208 24.4775L32.9283 23.2986L32.4308 22.0673L32.1682 20.9161L31.9167 20.478L31.393 19.823L31.053 19.3254L31.0267 18.6179L30.6121 17.9642L30.0897 17.3091L29.4872 16.1828L28.8059 15.5292L28.09 14.9266L27.095 13.4341L25.7586 12.3603L24.2661 11.0764L23.1398 10.5043C23.1398 10.5043 22.3631 9.65714 22.0342 9.45676C21.7382 9.31921 21.4318 9.20508 21.118 9.11541L20.6716 8.88047L19.6766 7.88545L18.9441 7.67539L24.2924 3.26274L25.0524 2.27878L20.2335 1.38326L15.966 1.56706C15.966 1.56706 13.4259 2.33267 12.9256 2.40453C12.6865 2.43908 12.3728 2.45843 12.1407 2.69199C11.9389 2.88961 11.8878 3.13975 11.6694 3.1895C11.5495 3.21132 11.4259 3.185 11.3253 3.11625C11.1785 2.982 10.9971 2.89153 10.8015 2.85506C10.4298 2.79425 10.2087 2.99326 9.65033 3.14251C9.09201 3.29176 9.11413 3.13422 8.8018 3.26274Z" fill="#F4CE14"/>
<path d="M19.9022 20.4781C19.8789 20.389 19.8375 20.3058 19.7806 20.2334C19.3854 19.7138 19.6189 18.1605 19.6065 17.1088C19.5954 16.3169 19.4559 16.6237 19.2389 14.8907C19.0468 13.3581 19.1712 13.2324 18.9625 12.5414C18.6695 11.574 18.1596 10.8982 17.7754 10.3952C16.9642 9.32966 16.696 9.49135 15.9788 8.43967C15.7253 8.02344 15.4072 7.65024 15.0363 7.33409C14.7813 7.13774 14.5109 6.96213 14.2278 6.80894C13.4498 6.31557 13.3627 5.90098 12.6745 5.20308C12.1217 4.65029 11.1695 3.68291 10.3873 3.89435C10.0709 3.98142 9.78756 4.43609 9.23338 5.34266C8.90995 5.84612 8.61958 6.37007 8.36412 6.91121C7.76987 8.21579 7.07888 9.7332 7.2461 11.6942C7.26269 11.878 7.54599 14.7111 9.69082 16.6168C10.2936 17.1273 10.9492 17.572 11.6463 17.9435C12.4582 18.3869 13.2979 18.7774 14.1601 19.1127C14.279 19.1583 15.6209 19.6655 16.1142 20.1077C16.1956 20.1836 16.285 20.2503 16.381 20.3067C16.6096 20.4389 16.8642 20.52 17.1272 20.5444C17.9758 20.6646 18.1499 21.3957 19.0468 21.4385C19.24 21.4611 19.4351 21.4167 19.5996 21.3128C19.724 21.2166 19.8185 21.0871 19.872 20.9393C19.9256 20.7916 19.9361 20.6316 19.9022 20.4781ZM17.3718 18.0679C17.1673 18.2061 15.9069 16.7633 15.1717 15.8167C14.357 14.7669 13.6496 13.6382 13.0601 12.4474C12.5102 11.4045 12.0319 10.3255 11.6283 9.21772C11.2746 8.25034 10.6015 6.39987 10.8075 6.30314C10.8752 6.27135 11.1377 6.37915 15.3293 13.9316C16.9766 16.9001 17.5321 17.9573 17.3718 18.0679Z" fill="#4B5E57"/>
<path d="M29.1889 3.8625C28.5496 4.46021 27.8556 4.99647 27.1159 5.46421C24.562 7.07559 22.9451 6.93049 20.7091 7.64635C20.2442 7.81537 19.7421 7.85455 19.2566 7.75967C19.1545 7.73696 19.0539 7.70788 18.9554 7.67261C17.6936 7.24558 17.3951 6.77571 16.4498 6.54768C15.9966 6.43712 15.8266 6.48826 15.3332 6.30307C15.0592 6.19362 14.796 6.05899 14.5469 5.90092C13.5366 5.25277 12.5458 3.94957 12.3772 3.7243L12.1339 3.54465C12.6508 3.44238 13.4385 3.30556 14.4031 3.21297C16.2923 3.03193 17.6093 3.14249 18.907 3.19501C20.6762 3.26479 22.4478 3.23572 24.2138 3.10794C22.8705 2.83155 21.7262 2.67815 20.8625 2.58417C18.6101 2.37621 16.3432 2.37621 14.0908 2.58417C13.3791 2.65604 13.0239 2.69197 12.7351 2.82878C12.3772 2.99877 12.0911 3.24338 11.6793 3.19501C11.5101 3.17454 11.3484 3.11337 11.208 3.01673C11.6779 2.7127 12.3509 2.30087 13.1884 1.86831C14.3575 1.26577 15.5377 0.654936 17.0579 0.297004C18.8485 -0.0990013 20.704 -0.0990013 22.4946 0.297004C24.446 0.733708 24.0977 1.17318 26.248 1.64167C27.0772 1.82132 28.0114 1.95123 28.6568 2.72375C28.9223 3.05559 29.1047 3.44599 29.1889 3.8625Z" fill="#4B5E57"/>
<path d="M41.0429 25.7729V11.2266H43.5859V25.7729H41.0429ZM42.3144 26V24.4863H49.8979L50.5185 26H42.3144ZM50.5185 26L48.021 25.1978L50.2006 21.0806H51.1694C51.1694 22.8263 50.9524 24.4661 50.5185 26ZM45.8867 11.0146L45.811 11.9834C45.4679 12.0944 45.0743 12.2004 44.6303 12.3013C44.1964 12.4022 43.7474 12.4829 43.2832 12.5435L43.5859 11.4385V13.5576H41.0429V11.4385L41.3003 12.4526L39.2871 12.0137L39.3628 11.0146H45.8867ZM39.3476 26L39.4233 25.0312C39.948 24.8193 40.5888 24.6226 41.3457 24.4409L41.0429 25.5762V23.457H43.5859V25.5762L43.3286 24.562L45.3418 25.001L45.2661 26H39.3476ZM58.1438 25.7729V11.2266H60.6868V25.7729H58.1438ZM56.4485 26L56.5242 25.0312C57.0489 24.8193 57.6897 24.6226 58.4465 24.4409L58.1438 25.5762V23.457H60.6868V25.5762L60.4294 24.562L62.4426 25.001L62.3669 26H56.4485ZM62.3821 11.0146L62.3064 11.9834C61.7816 12.1953 61.1409 12.3921 60.384 12.5737L60.6868 11.4385V13.5576H58.1438V11.4385L58.4011 12.4526L56.3879 12.0137L56.4636 11.0146H62.3821ZM72.7017 25.7729V11.2266H75.2446V25.7729H72.7017ZM67.5098 15.48C67.3887 13.9259 67.4694 12.4375 67.752 11.0146L70.0982 11.8774L68.5391 15.48H67.5098ZM68.0244 12.5283L67.752 11.0146H80.1944L79.6494 12.5283H68.0244ZM79.4072 15.48L77.8482 11.8774L80.1944 11.0146C80.4769 12.4375 80.5576 13.9259 80.4365 15.48H79.4072ZM70.7642 26L70.8399 25.0312C71.1426 24.9202 71.4807 24.8143 71.854 24.7134C72.2274 24.6125 72.6109 24.5267 73.0044 24.4561L72.7017 25.5762V23.457H75.2446V25.5762L74.9571 24.562L77.2427 25.001L77.167 26H70.7642ZM90.3475 25.7729V11.2266H92.8904V25.7729H90.3475ZM85.1556 15.48C85.0345 13.9259 85.1152 12.4375 85.3978 11.0146L87.7439 11.8774L86.1849 15.48H85.1556ZM85.6702 12.5283L85.3978 11.0146H97.8401L97.2952 12.5283H85.6702ZM97.053 15.48L95.4939 11.8774L97.8401 11.0146C98.1227 12.4375 98.2034 13.9259 98.0823 15.48H97.053ZM88.41 26L88.4856 25.0312C88.7884 24.9202 89.1264 24.8143 89.4998 24.7134C89.8732 24.6125 90.2566 24.5267 90.6502 24.4561L90.3475 25.5762V23.457H92.8904V25.5762L92.6028 24.562L94.8885 25.001L94.8128 26H88.41ZM104.875 25.7729V11.2266H107.418V25.7729H104.875ZM106.147 26V24.4863H113.73L114.351 26H106.147ZM114.351 26L111.853 25.1978L114.033 21.0806H115.002C115.002 22.8263 114.785 24.4661 114.351 26ZM109.719 11.0146L109.643 11.9834C109.3 12.0944 108.906 12.2004 108.462 12.3013C108.029 12.4022 107.58 12.4829 107.115 12.5435L107.418 11.4385V13.5576H104.875V11.4385L105.132 12.4526L103.119 12.0137L103.195 11.0146H109.719ZM103.18 26L103.255 25.0312C103.78 24.8193 104.421 24.6226 105.178 24.4409L104.875 25.5762V23.457H107.418V25.5762L107.161 24.562L109.174 25.001L109.098 26H103.18ZM121.946 25.7729V11.2266H124.489V25.7729H121.946ZM123.232 26V24.4863H131.406L131.769 26H123.232ZM131.769 26L129.363 25.1978L131.224 21.686H132.39C132.41 22.2108 132.365 22.8768 132.254 23.6841C132.143 24.4813 131.981 25.2533 131.769 26ZM122.99 19.1279V17.4932H129.635L129.514 19.1279H122.99ZM122.354 12.5283V11.0146H131.603L131.315 12.5283H122.354ZM130.68 15.0562L129.317 11.8774L131.603 11.0146C131.744 11.6908 131.835 12.382 131.875 13.0884C131.926 13.7847 131.926 14.4406 131.875 15.0562H130.68ZM120.25 26L120.326 25.0312C120.851 24.8193 121.492 24.6226 122.248 24.4409L121.946 25.5762V23.457H124.489V25.5762L124.231 24.562L126.244 25.001L126.169 26H120.25ZM126.184 11.0146L126.108 11.9834C125.584 12.1953 124.943 12.3921 124.186 12.5737L124.489 11.4385V13.5576H121.946V11.4385L122.203 12.4526L120.19 12.0137L120.265 11.0146H126.184ZM148.337 25.7729V11.2266H150.88V25.7729H148.337ZM149.608 26V24.4863H157.192L157.812 26H149.608ZM157.812 26L155.315 25.1978L157.495 21.0806H158.463C158.463 22.8263 158.246 24.4661 157.812 26ZM153.181 11.0146L153.105 11.9834C152.762 12.0944 152.368 12.2004 151.924 12.3013C151.49 12.4022 151.041 12.4829 150.577 12.5435L150.88 11.4385V13.5576H148.337V11.4385L148.594 12.4526L146.581 12.0137L146.657 11.0146H153.181ZM146.642 26L146.717 25.0312C147.242 24.8193 147.883 24.6226 148.64 24.4409L148.337 25.5762V23.457H150.88V25.5762L150.622 24.562L152.636 25.001L152.56 26H146.642ZM165.407 25.7729V11.2266H167.95V25.7729H165.407ZM166.694 26V24.4863H174.868L175.231 26H166.694ZM175.231 26L172.824 25.1978L174.686 21.686H175.852C175.872 22.2108 175.827 22.8768 175.716 23.6841C175.605 24.4813 175.443 25.2533 175.231 26ZM166.452 19.1279V17.4932H173.097L172.976 19.1279H166.452ZM165.816 12.5283V11.0146H175.065L174.777 12.5283H165.816ZM174.141 15.0562L172.779 11.8774L175.065 11.0146C175.206 11.6908 175.297 12.382 175.337 13.0884C175.388 13.7847 175.388 14.4406 175.337 15.0562H174.141ZM163.712 26L163.788 25.0312C164.313 24.8193 164.953 24.6226 165.71 24.4409L165.407 25.5762V23.457H167.95V25.5762L167.693 24.562L169.706 25.001L169.631 26H163.712ZM169.646 11.0146L169.57 11.9834C169.045 12.1953 168.404 12.3921 167.648 12.5737L167.95 11.4385V13.5576H165.407V11.4385L165.665 12.4526L163.652 12.0137L163.727 11.0146H169.646ZM189.547 25.3945L184.173 11.0146H186.777L191.454 24.0776L191.515 25.334C191.222 25.3743 190.904 25.3996 190.561 25.4097C190.228 25.4198 189.89 25.4147 189.547 25.3945ZM181.025 26L181.101 25.0312C181.625 24.7891 182.236 24.5923 182.932 24.4409L182.569 25.4551L183.462 11.7109L183.689 12.4526L181.57 12.0137L181.645 11.0146H185.263L184.476 25.4248L184.234 24.562L186.429 25.001L186.353 26H181.025ZM191.515 25.334L189.986 25.001L194.92 11.0146H196.858L191.515 25.334ZM194.693 26L194.769 25.0312C195.062 24.9102 195.385 24.8042 195.738 24.7134C196.101 24.6125 196.469 24.5267 196.843 24.4561L196.585 25.3491L195.813 11.0146H200.021L199.946 11.9834C199.391 12.2155 198.72 12.4072 197.933 12.5586L198.19 11.8472L199.083 25.3037L198.795 24.562L200.703 25.001L200.627 26H194.693ZM213.202 26.2725C211.759 26.2725 210.508 25.9546 209.448 25.3188C208.388 24.6831 207.566 23.785 206.981 22.6245C206.406 21.464 206.118 20.0967 206.118 18.5225C206.118 16.9382 206.406 15.5658 206.981 14.4053C207.566 13.2347 208.388 12.3315 209.448 11.6958C210.518 11.0601 211.774 10.7422 213.217 10.7422C214.66 10.7422 215.911 11.0601 216.971 11.6958C218.041 12.3315 218.863 13.2297 219.438 14.3901C220.024 15.5405 220.316 16.9079 220.316 18.4922C220.316 20.0765 220.024 21.4539 219.438 22.6245C218.863 23.785 218.041 24.6831 216.971 25.3188C215.911 25.9546 214.655 26.2725 213.202 26.2725ZM213.595 24.7891C216.138 24.7891 217.41 22.8818 217.41 19.0674C217.41 16.8675 217.011 15.1772 216.214 13.9966C215.427 12.8159 214.302 12.2256 212.839 12.2256C210.296 12.2256 209.024 14.1328 209.024 17.9473C209.024 20.1572 209.418 21.8525 210.205 23.0332C211.002 24.2038 212.132 24.7891 213.595 24.7891ZM237.326 26.0908L227.76 12.5889L229.455 11.0146L239.022 24.5469L239.143 26.0151C238.608 26.1261 238.002 26.1514 237.326 26.0908ZM227.639 25.7729V11.2266L229.546 12.1196V25.7729H227.639ZM229.667 13.6182L227.896 12.7251L225.883 12.0137L225.959 11.0146H229.455L229.667 13.6182ZM239.143 26.0151L237.235 25.334V11.2266H239.143V26.0151ZM225.943 26L226.019 25.0312C226.544 24.8193 227.185 24.6226 227.941 24.4409L227.639 25.5762V23.457H229.546V25.5762L229.258 24.562L231.514 25.001L231.438 26H225.943ZM240.747 11.0146L240.671 11.9834C240.076 12.2357 239.46 12.4325 238.825 12.5737L239.143 11.4385V13.5576H237.235V11.4385L237.493 12.4526L235.48 12.0137L235.555 11.0146H240.747Z" fill="#4B5E57"/>
<path d="M186.515 48.192C185.63 48.192 184.867 47.9707 184.227 47.528C183.587 47.08 183.094 46.4613 182.747 45.672C182.4 44.8773 182.227 43.9573 182.227 42.912C182.227 41.7973 182.414 40.8587 182.787 40.096C183.166 39.3333 183.678 38.7573 184.323 38.368C184.974 37.9733 185.704 37.776 186.515 37.776C187.587 37.776 188.448 38.0453 189.099 38.584C189.755 39.1173 190.206 39.8133 190.451 40.672L189.107 40.944C188.899 40.32 188.566 39.824 188.107 39.456C187.654 39.0827 187.123 38.896 186.515 38.896C185.987 38.896 185.499 39.048 185.051 39.352C184.608 39.6507 184.251 40.0987 183.979 40.696C183.707 41.2933 183.571 42.032 183.571 42.912C183.571 43.712 183.678 44.424 183.891 45.048C184.11 45.672 184.435 46.1627 184.867 46.52C185.304 46.8773 185.854 47.056 186.515 47.056C187.31 47.056 187.939 46.8427 188.403 46.416C188.872 45.9893 189.107 45.4293 189.107 44.736H190.467C190.467 45.456 190.302 46.0747 189.971 46.592C189.64 47.104 189.176 47.4987 188.579 47.776C187.987 48.0533 187.299 48.192 186.515 48.192ZM198.28 48V43.504C198.28 42.7733 198.104 42.2187 197.752 41.84C197.405 41.456 196.93 41.264 196.328 41.264C195.869 41.264 195.472 41.3893 195.136 41.64C194.8 41.8907 194.541 42.2507 194.36 42.72C194.178 43.184 194.088 43.7387 194.088 44.384H193.608C193.608 43.4933 193.725 42.7333 193.96 42.104C194.194 41.4747 194.536 40.9947 194.984 40.664C195.437 40.328 195.986 40.16 196.632 40.16C197.234 40.16 197.749 40.296 198.176 40.568C198.608 40.8347 198.938 41.2187 199.168 41.72C199.397 42.2213 199.512 42.816 199.512 43.504V48H198.28ZM192.84 48V37.088H194.088V48H192.84ZM203.2 38.544C202.944 38.544 202.741 38.472 202.592 38.328C202.443 38.1787 202.368 37.984 202.368 37.744C202.368 37.5093 202.443 37.3227 202.592 37.184C202.741 37.0453 202.944 36.976 203.2 36.976C203.456 36.976 203.659 37.0453 203.808 37.184C203.957 37.3227 204.032 37.5093 204.032 37.744C204.032 37.984 203.957 38.1787 203.808 38.328C203.659 38.472 203.456 38.544 203.2 38.544ZM202.576 48V40.336H203.824V48H202.576ZM209.95 48.192C209.336 48.192 208.763 48.0267 208.23 47.696C207.702 47.3653 207.275 46.8987 206.95 46.296C206.624 45.6933 206.462 44.9813 206.462 44.16C206.462 43.3173 206.624 42.5973 206.95 42C207.275 41.4027 207.702 40.9467 208.23 40.632C208.763 40.3173 209.336 40.16 209.95 40.16C210.382 40.16 210.768 40.2267 211.11 40.36C211.456 40.488 211.758 40.6667 212.014 40.896C212.27 41.1253 212.48 41.3867 212.646 41.68C212.816 41.968 212.942 42.272 213.022 42.592L211.742 42.704C211.608 42.2613 211.384 41.912 211.07 41.656C210.76 41.3947 210.382 41.264 209.934 41.264C209.555 41.264 209.198 41.3733 208.862 41.592C208.531 41.8053 208.262 42.128 208.054 42.56C207.846 42.9867 207.742 43.52 207.742 44.16C207.742 44.752 207.835 45.2667 208.022 45.704C208.214 46.136 208.475 46.472 208.806 46.712C209.136 46.952 209.512 47.072 209.934 47.072C210.526 47.072 210.974 46.928 211.278 46.64C211.587 46.3467 211.742 45.9413 211.742 45.424H213.022C213.022 45.9573 212.896 46.432 212.646 46.848C212.395 47.264 212.038 47.592 211.574 47.832C211.115 48.072 210.574 48.192 209.95 48.192ZM220.248 48L220.088 46.32V43.04C220.088 42.352 219.941 41.8587 219.648 41.56C219.354 41.256 218.914 41.104 218.328 41.104C217.997 41.104 217.696 41.152 217.424 41.248C217.157 41.344 216.944 41.4933 216.784 41.696C216.629 41.8933 216.552 42.1493 216.552 42.464H215.16C215.16 41.9093 215.296 41.464 215.568 41.128C215.84 40.7867 216.213 40.5413 216.688 40.392C217.168 40.2373 217.714 40.16 218.328 40.16C218.914 40.16 219.434 40.2587 219.888 40.456C220.341 40.6533 220.696 40.968 220.952 41.4C221.208 41.8267 221.336 42.384 221.336 43.072V48H220.248ZM217.64 48.192C217.01 48.192 216.49 48.08 216.08 47.856C215.669 47.632 215.362 47.3413 215.16 46.984C214.957 46.6267 214.856 46.2507 214.856 45.856C214.856 45.3387 214.984 44.9173 215.24 44.592C215.501 44.2667 215.856 44.0293 216.304 43.88C216.752 43.7253 217.256 43.648 217.816 43.648C218.216 43.648 218.616 43.688 219.016 43.768C219.421 43.848 219.816 43.9573 220.2 44.096V44.88C219.88 44.752 219.517 44.6507 219.112 44.576C218.712 44.5013 218.344 44.464 218.008 44.464C217.496 44.464 217.064 44.5707 216.712 44.784C216.36 44.992 216.184 45.3493 216.184 45.856C216.184 46.2293 216.317 46.5493 216.584 46.816C216.856 47.0827 217.288 47.216 217.88 47.216C218.296 47.216 218.669 47.12 219 46.928C219.336 46.7307 219.6 46.4853 219.792 46.192C219.989 45.8987 220.088 45.6053 220.088 45.312H220.392C220.392 45.824 220.28 46.2987 220.056 46.736C219.837 47.1733 219.522 47.5253 219.112 47.792C218.701 48.0587 218.21 48.192 217.64 48.192ZM227.028 51.936C226.244 51.936 225.564 51.824 224.988 51.6C224.412 51.3813 223.964 51.0853 223.644 50.712C223.329 50.344 223.172 49.936 223.172 49.488C223.172 48.896 223.388 48.4427 223.82 48.128C224.257 47.8187 224.82 47.664 225.508 47.664L226.196 48.096C225.62 48.096 225.175 48.216 224.86 48.456C224.545 48.696 224.388 49.024 224.388 49.44C224.388 49.856 224.612 50.208 225.06 50.496C225.508 50.784 226.164 50.928 227.028 50.928C227.668 50.928 228.228 50.8347 228.708 50.648C229.193 50.4667 229.569 50.2267 229.836 49.928C230.108 49.6347 230.244 49.3173 230.244 48.976C230.244 48.736 230.156 48.528 229.98 48.352C229.804 48.1813 229.535 48.096 229.172 48.096H226.196C225.679 48.096 225.231 48.0187 224.852 47.864C224.479 47.704 224.191 47.496 223.988 47.24C223.785 46.984 223.684 46.704 223.684 46.4C223.684 46.08 223.775 45.808 223.956 45.584C224.137 45.36 224.372 45.1893 224.66 45.072C224.953 44.9547 225.268 44.896 225.604 44.896L225.844 45.36C225.684 45.36 225.521 45.3973 225.356 45.472C225.196 45.5413 225.06 45.648 224.948 45.792C224.841 45.9307 224.788 46.1067 224.788 46.32C224.788 46.5653 224.889 46.7707 225.092 46.936C225.295 47.1013 225.663 47.184 226.196 47.184H229.172C229.892 47.184 230.457 47.336 230.868 47.64C231.284 47.944 231.492 48.368 231.492 48.912C231.492 49.4133 231.313 49.8933 230.956 50.352C230.599 50.816 230.087 51.1947 229.42 51.488C228.753 51.7867 227.956 51.936 227.028 51.936ZM227.252 45.76C226.665 45.76 226.135 45.6427 225.66 45.408C225.191 45.1733 224.817 44.8453 224.54 44.424C224.268 44.0027 224.132 43.5147 224.132 42.96C224.132 42.4 224.268 41.9093 224.54 41.488C224.817 41.0667 225.191 40.7413 225.66 40.512C226.135 40.2773 226.665 40.16 227.252 40.16C227.823 40.16 228.34 40.2773 228.804 40.512C229.273 40.7413 229.647 41.0667 229.924 41.488C230.201 41.9093 230.34 42.4 230.34 42.96C230.34 43.5147 230.201 44.0027 229.924 44.424C229.647 44.8453 229.273 45.1733 228.804 45.408C228.34 45.6427 227.823 45.76 227.252 45.76ZM227.252 44.864C227.839 44.864 228.295 44.6827 228.62 44.32C228.945 43.9573 229.108 43.504 229.108 42.96C229.108 42.4 228.945 41.9467 228.62 41.6C228.295 41.248 227.839 41.072 227.252 41.072C226.671 41.072 226.212 41.248 225.876 41.6C225.545 41.9467 225.38 42.4 225.38 42.96C225.38 43.504 225.545 43.9573 225.876 44.32C226.212 44.6827 226.671 44.864 227.252 44.864ZM229.764 41.376L229.172 41.136C229.172 40.688 229.26 40.296 229.436 39.96C229.612 39.6187 229.863 39.3547 230.188 39.168C230.513 38.976 230.9 38.88 231.348 38.88L231.252 40.112C230.772 40.112 230.404 40.216 230.148 40.424C229.892 40.6267 229.764 40.944 229.764 41.376ZM236.123 48.192C235.435 48.192 234.822 48.04 234.283 47.736C233.75 47.432 233.329 46.9813 233.019 46.384C232.71 45.7867 232.555 45.0507 232.555 44.176C232.555 43.296 232.71 42.56 233.019 41.968C233.329 41.3707 233.75 40.92 234.283 40.616C234.822 40.312 235.435 40.16 236.123 40.16C236.806 40.16 237.414 40.312 237.947 40.616C238.486 40.92 238.907 41.3707 239.211 41.968C239.521 42.56 239.675 43.296 239.675 44.176C239.675 45.0507 239.521 45.7867 239.211 46.384C238.907 46.9813 238.486 47.432 237.947 47.736C237.414 48.04 236.806 48.192 236.123 48.192ZM236.091 47.104C236.587 47.104 237.009 46.9867 237.355 46.752C237.702 46.512 237.963 46.1733 238.139 45.736C238.321 45.2987 238.411 44.7787 238.411 44.176C238.411 43.264 238.222 42.5467 237.843 42.024C237.465 41.496 236.902 41.232 236.155 41.232C235.654 41.232 235.23 41.352 234.883 41.592C234.542 41.8267 234.281 42.1653 234.099 42.608C233.923 43.0453 233.835 43.568 233.835 44.176C233.835 45.0773 234.025 45.792 234.403 46.32C234.787 46.8427 235.35 47.104 236.091 47.104Z" fill="#495E57"/>
</svg>
