<svg xmlns="http://www.w3.org/2000/svg" viewBox="0 0 248.97 419.68"><defs><style>.cls-1{fill:#f4ce18;}.cls-2{fill:#4a5f58;}</style></defs><g id="Layer_2" data-name="Layer 2"><g id="Layer_1-2" data-name="Layer 1"><path class="cls-1" d="M63.74,23.6c-4.6,1.89-3.68,5.93-9,9.18-2.38,1.45-3.57,1.25-5.12,3a10.21,10.21,0,0,0-2.27,6.06L44,45.66c-.82,13.13-1.81,22.93-2.47,26.53A14.63,14.63,0,0,1,40,76.73c-1.11,2-1.92,2.28-3,4-1.62,2.48-1.15,3.89-2.28,7.77a29.91,29.91,0,0,1-2.84,6.63l-4.17,9.67-3.41,11-3.41,6.06-3.41,3.79-3.79,7-3.22,13.83L6.06,152.9l-1.13,7L2.08,163.7V172L1,182.08l-.95,10,1.71,8.53L2.65,208a13,13,0,0,0-1.32,7.39c.35,2.55,1.28,2.74,2.08,5.3,1.8,5.8-1.69,9,0,15a14.76,14.76,0,0,0,2.08,4.36l1,4.74a18.59,18.59,0,0,1,.95,3.41c.68,3.79-.38,4.56.38,7s2.16,2.52,3.41,5.68a14.58,14.58,0,0,1,1,4.17l.94,8.34,1.52,7.77,5.68,7.2,5.88,9.28,4.92,6.63,3.79,6.25,2.28,6.26a16.52,16.52,0,0,1,5.3,5.49c1.92,3.32,1.7,5.94,4.17,7.39,1.53.9,2.1.19,3.79,1.33a10.55,10.55,0,0,1,3.41,4.55A16.73,16.73,0,0,1,55,338.78l3.6,2.65L63.74,346l2.77,3.6L73,357.53l7.39,4.55L90.19,371l5.68,5.87,8.34,4.17,6.82,3.22,8,4,4.43,1.33a106,106,0,0,0,10.92,3,25,25,0,0,1,6.19,1.77c2.13,1,3,1.94,5.36,2.77a16.43,16.43,0,0,0,4.55.95l3.6,1.14,2.65,1.7,3.79,3.6,5.12,4.93,5.68,3.41,5.12,3.6,4,3.22h16.29l5.69-9.66v-4.74l.06-6.88c.3-3,.59-6,.89-9l1.32-5.69,5.12-9.66s2.08-.19,2.65-.95,3-11.37,3-11.37l3.41-9.66,5.31-7.58v-5.12l2.46-5.11,4.55-9.66,1.51-7,1-6.26,6.06-12.88,1.71-11.75,1.52-7.58,1.51-12.31c.63-1.71,1.26-3.41,1.9-5.12a12.55,12.55,0,0,0,1.13-7.77,11.78,11.78,0,0,0-1.13-3.22l.19-2.65,2.46-4.93V227.93l-1.14-6.29,1.14-7.16-1.52-8-2.27-5.3-.19-4,.76-7.39L244,185.11l-2.84-8-2.84-8.53-3.6-8.91-1.9-8.33L231,148.17l-3.79-4.74-2.46-3.6-.19-5.12-3-4.73-3.78-4.74-4.36-8.15-4.93-4.73L203.31,108l-7.2-10.8-9.67-7.77-10.8-9.29L167.49,76s-5.62-6.13-8-7.58a45.21,45.21,0,0,0-6.63-2.47l-3.23-1.7-7.2-7.2-5.3-1.52L175.83,23.6l5.5-7.12L146.46,10l-30.88,1.33s-18.38,5.54-22,6.06c-1.73.25-4,.39-5.68,2.08-1.46,1.43-1.83,3.24-3.41,3.6A3.35,3.35,0,0,1,82,22.54a7.71,7.71,0,0,0-3.79-1.89c-2.69-.44-4.29,1-8.33,2.08S66,22.67,63.74,23.6Z"/><path class="cls-2" d="M144.06,148.17a4.85,4.85,0,0,0-.88-1.77c-2.86-3.76-1.17-15-1.26-22.61-.08-5.73-1.09-3.51-2.66-16.05-1.39-11.09-.49-12-2-17-2.12-7-5.81-11.89-8.59-15.53-5.87-7.71-7.81-6.54-13-14.15a33.21,33.21,0,0,0-6.82-8A43.63,43.63,0,0,0,103,49.26c-5.63-3.57-6.26-6.57-11.24-11.62-4-4-10.89-11-16.55-9.47-2.29.63-4.34,3.92-8.35,10.48A99.91,99.91,0,0,0,60.57,50c-4.3,9.44-9.3,20.42-8.09,34.61.12,1.33,2.17,21.83,17.69,35.62a80.42,80.42,0,0,0,14.15,9.6,155.63,155.63,0,0,0,18.19,8.46c.86.33,10.57,4,14.14,7.2a11,11,0,0,0,1.93,1.44,13.22,13.22,0,0,0,5.4,1.72c6.14.87,7.4,6.16,13.89,6.47a6.15,6.15,0,0,0,4-.91A6,6,0,0,0,144.06,148.17Zm-18.31-17.44c-1.48,1-10.6-9.44-15.92-16.29A143.9,143.9,0,0,1,94.55,90.06,188.26,188.26,0,0,1,84.19,66.69c-2.56-7-7.43-20.39-5.94-21.09.49-.23,2.39.55,32.72,55.2C122.89,122.28,126.91,129.93,125.75,130.73Z"/><path class="cls-2" d="M211.26,27.94a101,101,0,0,1-15,11.59c-18.48,11.66-30.18,10.61-46.36,15.79a19.7,19.7,0,0,1-10.51.82,18.16,18.16,0,0,1-2.18-.63c-9.13-3.09-11.29-6.49-18.13-8.14-3.28-.8-4.51-.43-8.08-1.77a34.53,34.53,0,0,1-5.69-2.91C98,38,90.83,28.57,89.61,26.94l-1.76-1.3c3.74-.74,9.44-1.73,16.42-2.4,13.67-1.31,23.2-.51,32.59-.13a344.15,344.15,0,0,0,38.4-.63c-9.72-2-18-3.11-24.25-3.79a266.48,266.48,0,0,0-49,0c-5.15.52-7.72.78-9.81,1.77-2.59,1.23-4.66,3-7.64,2.65a7.63,7.63,0,0,1-3.41-1.29c3.4-2.2,8.27-5.18,14.33-8.31,8.46-4.36,17-8.78,28-11.37a91.09,91.09,0,0,1,39.34,0c14.12,3.16,11.6,6.34,27.16,9.73,6,1.3,12.76,2.24,17.43,7.83A19.32,19.32,0,0,1,211.26,27.94Z"/></g></g></svg>